<svg width="18" height="18" viewBox="0 0 18 18" fill="none" xmlns="http://www.w3.org/2000/svg">
<path d="M17.6402 9.20455C17.6402 8.60455 17.583 8.00455 17.4787 7.43182H9V10.8136H13.8438C13.6365 11.9727 12.9929 12.9318 12.0465 13.5682V15.8182H14.762C16.4979 14.3182 17.6402 11.9864 17.6402 9.20455Z" fill="#4285F4"/>
<path d="M9.00011 18C11.4322 18 13.4666 17.1955 14.7621 15.8182L12.0466 13.5682C11.2549 14.0818 10.2277 14.375 9.00011 14.375C6.65491 14.375 4.67211 12.8136 3.9617 10.7159H1.125V13.0523C2.43034 15.9045 5.48034 18 9.00011 18Z" fill="#34A853"/>
<path d="M3.9617 10.7159C3.78443 10.1841 3.68182 9.60227 3.68182 9C3.68182 8.39773 3.78443 7.81591 3.9617 7.28409V4.94773H1.125C0.427045 6.30227 0 7.79545 0 9C0 10.2045 0.427045 11.6977 1.125 13.0523L3.9617 10.7159Z" fill="#FBBC05"/>
<path d="M9.00011 3.625C10.3283 3.625 11.5058 4.08636 12.4731 4.99545L14.8112 2.72727C13.4621 1.44091 11.4277 0 9.00011 0C5.48034 0 2.43034 2.09545 1.125 4.94773L3.9617 7.28409C4.67211 5.18636 6.65491 3.625 9.00011 3.625Z" fill="#EA4335"/>
</svg>
